<svg id="Grupo_1912" data-name="Grupo 1912" xmlns="http://www.w3.org/2000/svg" width="223.197" height="61.01" viewBox="0 0 223.197 61.01">
  <g id="Grupo_1908" data-name="Grupo 1908" transform="translate(70.769 29.36)">
    <path id="Caminho_1156" data-name="Caminho 1156" d="M1188.476,525.15c-3.44-.3-5.139,1.132-5.139,4.311v.436h5.139v4.529h-5.139v17.246h-4.7V534.426h-3.31V529.9h3.31v-.436c0-5.966,3.4-9.232,9.842-8.841Z" transform="translate(-1175.324 -520.589)" fill="#003870"/>
    <path id="Caminho_1157" data-name="Caminho 1157" d="M1223.469,540.751h4.7v21.775h-4.7v-3.135a8.8,8.8,0,0,1-7.622,3.7,10.19,10.19,0,0,1-7.665-3.31,12.021,12.021,0,0,1,0-16.288,10.19,10.19,0,0,1,7.665-3.31,8.866,8.866,0,0,1,7.622,3.658Zm-6.881,17.856a6.7,6.7,0,0,0,4.921-1.96,6.9,6.9,0,0,0,1.96-5.009,6.73,6.73,0,0,0-1.96-4.965,7.047,7.047,0,0,0-9.842,0,6.728,6.728,0,0,0-1.96,4.965,6.9,6.9,0,0,0,1.96,5.009,6.7,6.7,0,0,0,4.921,1.96" transform="translate(-1191.763 -531.443)" fill="#003870"/>
    <path id="Caminho_1158" data-name="Caminho 1158" d="M1271.781,558.787h10.583v4.442h-16.985v-3.135l10.191-14.2h-9.756v-4.442h16.114v3.136Z" transform="translate(-1225.204 -532.145)" fill="#003870"/>
    <path id="Caminho_1159" data-name="Caminho 1159" d="M1347.945,533.384a12.02,12.02,0,0,1,0,16.288,10.192,10.192,0,0,1-7.665,3.31,8.793,8.793,0,0,1-7.621-3.7v3.135h-4.7V521.93h4.7v11.8a8.864,8.864,0,0,1,7.621-3.658,10.192,10.192,0,0,1,7.665,3.31M1339.54,548.5a6.7,6.7,0,0,0,4.921-1.96,6.9,6.9,0,0,0,1.96-5.009,6.73,6.73,0,0,0-1.96-4.965,7.047,7.047,0,0,0-9.842,0,6.728,6.728,0,0,0-1.96,4.965,6.9,6.9,0,0,0,1.96,5.009,6.7,6.7,0,0,0,4.921,1.96" transform="translate(-1259.864 -521.332)" fill="#003870"/>
    <path id="Caminho_1160" data-name="Caminho 1160" d="M1392.377,553.642c.7,3.31,3.353,5.139,6.968,5.139a6.453,6.453,0,0,0,5.618-2.7l3.876,2.265c-2.134,3.179-5.313,4.747-9.538,4.747a11.77,11.77,0,0,1-8.58-3.223,11.953,11.953,0,0,1-.044-16.375,10.991,10.991,0,0,1,8.275-3.31,10.207,10.207,0,0,1,7.839,3.353,11.644,11.644,0,0,1,3.092,8.144,12.746,12.746,0,0,1-.174,1.96Zm12.761-3.833a6.067,6.067,0,0,0-6.228-5.356,6.323,6.323,0,0,0-6.576,5.356Z" transform="translate(-1292.821 -531.443)" fill="#003870"/>
    <path id="Caminho_1161" data-name="Caminho 1161" d="M1477.258,549.026v13.5h-4.7v-13.2c0-3.005-1.612-4.747-4.225-4.747-2.918,0-4.747,1.916-4.747,5.749v12.194h-4.7v-13.2c0-3.005-1.481-4.747-4.094-4.747-2.831,0-4.834,1.959-4.834,5.749v12.194h-4.7V540.751h4.7v2.613a6.948,6.948,0,0,1,6.228-3.179,6.654,6.654,0,0,1,6.184,3.44,7.28,7.28,0,0,1,6.663-3.44c4.922,0,8.231,3.44,8.231,8.841" transform="translate(-1324.831 -531.443)" fill="#003870"/>
  </g>
  <g id="Grupo_1909" data-name="Grupo 1909" transform="translate(0 0)">
    <path id="Caminho_1151" data-name="Caminho 1151" d="M1033.979,456.045l-6.053,16.55-6.1-16.55h-5.139l8.493,21.776h5.443l8.493-21.776Z" transform="translate(-1016.689 -455.479)" fill="#299BEF"/>
    <path id="Caminho_1163" data-name="Caminho 1163" d="M0,0H4.7V21.776H0Z" transform="translate(24.955 0.566)" fill="#299BEF"/>
    <path id="Caminho_1152" data-name="Caminho 1152" d="M1108.371,455.342h4.7v21.775h-4.7v-3.135a8.794,8.794,0,0,1-7.622,3.7,10.19,10.19,0,0,1-7.665-3.31,12.021,12.021,0,0,1,0-16.288,10.19,10.19,0,0,1,7.665-3.31,8.865,8.865,0,0,1,7.622,3.658ZM1101.49,473.2a6.7,6.7,0,0,0,4.921-1.96,6.9,6.9,0,0,0,1.96-5.009,6.73,6.73,0,0,0-1.96-4.965,7.046,7.046,0,0,0-9.842,0,6.727,6.727,0,0,0-1.96,4.965,6.9,6.9,0,0,0,1.96,5.009,6.7,6.7,0,0,0,4.921,1.96" transform="translate(-1057.243 -454.776)" fill="#299BEF"/>
    <path id="Caminho_1153" data-name="Caminho 1153" d="M1148.728,456.026h4.7v22.647c0,6.053-2.961,8.841-8.928,8.405v-4.529c2.918.3,4.224-.871,4.224-3.876Z" transform="translate(-1087.484 -455.468)" fill="#299BEF"/>
    <path id="Caminho_1154" data-name="Caminho 1154" d="M1190.666,455.342h4.7v21.775h-4.7v-3.135a8.794,8.794,0,0,1-7.621,3.7,10.19,10.19,0,0,1-7.665-3.31,12.02,12.02,0,0,1,0-16.288,10.19,10.19,0,0,1,7.665-3.31,8.865,8.865,0,0,1,7.621,3.658Zm-6.881,17.856a6.7,6.7,0,0,0,4.921-1.96,6.9,6.9,0,0,0,1.96-5.009,6.73,6.73,0,0,0-1.96-4.965,7.046,7.046,0,0,0-9.842,0,6.728,6.728,0,0,0-1.96,4.965,6.9,6.9,0,0,0,1.96,5.009,6.7,6.7,0,0,0,4.921,1.96" transform="translate(-1102.824 -454.776)" fill="#299BEF"/>
    <path id="Caminho_1155" data-name="Caminho 1155" d="M1239.869,459.217c1.176-2.7,3.441-4.05,6.707-4.05v5.1a6.8,6.8,0,0,0-4.7,1.306c-1.349.958-2,2.569-2,4.79v10.975h-4.7V455.559h4.7Z" transform="translate(-1137.7 -454.993)" fill="#299BEF"/>
    <path id="Caminho_1162" data-name="Caminho 1162" d="M1132,543.885a17.713,17.713,0,0,1-17.693-17.693h4.638A13.069,13.069,0,0,0,1132,539.246Z" transform="translate(-1070.76 -494.332)" fill="#299BEF"/>
  </g>
</svg>
