<svg xmlns="http://www.w3.org/2000/svg" width="23.95" height="23.95" viewBox="0 0 23.95 23.95">
  <path id="facebook" d="M20.724,0H3.229A3.227,3.227,0,0,0,0,3.227v17.5A3.227,3.227,0,0,0,3.229,23.95h8.628l.015-8.558H9.649a.525.525,0,0,1-.525-.523L9.114,12.11a.525.525,0,0,1,.525-.527h2.219V8.918c0-3.093,1.889-4.778,4.649-4.778h2.264a.525.525,0,0,1,.525.525V6.991a.525.525,0,0,1-.524.525h-1.39c-1.5,0-1.791.713-1.791,1.76v2.308h3.3a.525.525,0,0,1,.521.586l-.327,2.759a.525.525,0,0,1-.521.463H15.605L15.59,23.95h5.134a3.227,3.227,0,0,0,3.227-3.227V3.227A3.227,3.227,0,0,0,20.724,0Z" transform="translate(-0.002)" fill="#9b9b9b"/>
</svg>
