<svg id="instagram" xmlns="http://www.w3.org/2000/svg" width="23.927" height="23.927" viewBox="0 0 23.927 23.927">
  <path id="instagram-border" d="M16.8,0H7.128A7.136,7.136,0,0,0,0,7.128V16.8a7.136,7.136,0,0,0,7.128,7.128H16.8A7.136,7.136,0,0,0,23.927,16.8V7.128A7.136,7.136,0,0,0,16.8,0ZM21.52,16.8A4.721,4.721,0,0,1,16.8,21.52H7.128A4.721,4.721,0,0,1,2.407,16.8V7.128A4.721,4.721,0,0,1,7.128,2.407H16.8A4.721,4.721,0,0,1,21.52,7.128V16.8Z" fill="#9b9b9b"/>
  <path id="instagram-circle" d="M139.188,133a6.188,6.188,0,1,0,6.188,6.188A6.2,6.2,0,0,0,139.188,133Zm0,9.97a3.781,3.781,0,1,1,3.781-3.781A3.781,3.781,0,0,1,139.188,142.97Z" transform="translate(-127.225 -127.225)" fill="#9b9b9b"/>
  <circle id="Elipse_2" data-name="Elipse 2" cx="1.483" cy="1.483" r="1.483" transform="translate(16.681 4.339)" fill="#9b9b9b"/>
</svg>
