<svg xmlns="http://www.w3.org/2000/svg" width="138.276" height="62.071" viewBox="0 0 138.276 62.071">
  <g id="logo-marvel" transform="translate(-97.601 -300.095)">
    <rect id="Retângulo_1529" data-name="Retângulo 1529" width="138.276" height="62.071" transform="translate(97.601 300.095)" fill="#ed1b24"/>
    <path id="Caminho_641" data-name="Caminho 641" d="M452.208,326.041h7.97v36.292h6.743v9.227H452.208Z" transform="translate(-235.336 -17.363)" fill="#fff"/>
    <g id="Agrupar_1214" data-name="Agrupar 1214" transform="translate(226.375 308.371)">
      <ellipse id="Elipse_1" data-name="Elipse 1" cx="2.759" cy="3.065" rx="2.759" ry="3.065" transform="translate(0 0)" fill="none" stroke="#fff" stroke-width="1.667"/>
      <path id="Caminho_642" data-name="Caminho 642" d="M484.836,332.237v-3.065h1.226a2.214,2.214,0,0,1,.613,0c.142.055.527-.14.613,0s0,.443,0,.613c0,.219.141.463,0,.613s-.317.572-.613.613c.108.052-.056-.051,0,0a5.205,5.205,0,0,1,.613.613v.613h0l-.613-.613a7.968,7.968,0,0,0-.613-.613c-.077-.1.061.04,0,0s.063.015,0,0c-.047-.01-.508,0-.613,0h0v1.226Zm.613-1.839h.613a3.191,3.191,0,0,0,.613,0c.105-.038-.055.085,0,0a2.3,2.3,0,0,0,0-.613c0-.146.106.094,0,0s-.384-.613-.613-.613h-.613Z" transform="translate(-483.304 -327.64)" fill="#fff"/>
    </g>
    <path id="Caminho_643" data-name="Caminho 643" d="M114.246,371.56V326.041h10.422l3.678,19.069,4.291-19.069h10.422v41.213l6.13-41.213h10.422l6.13,41.213v-40.6h13.487s5.007.888,7.357,7.381l-1.226-8h8.583l3.678,23.989,4.291-23.374h22.683v8.612h-6.743v9.227h6.743v9.227h-6.743v8.612h6.743v9.227H209.881V327.887l-7.97,43.673h-9.2l-4.9-28.91s-.372,8.024-4.9,11.687l5.517,17.223h-7.97l-5.517-15.378V371.56H158.386l-.613-4.306h-6.13l-1.226,4.306H134.477V354.952L130.8,371.56h-4.291l-3.678-16.608V371.56Zm42.913-12.917-2.452-14.148-2.452,14.148Zm17.778-10.457c5.539-.333,4.9-7.381,4.9-7.381-.839-6.66-4.9-6.151-4.9-6.151Z" transform="translate(-11.128 -17.363)" fill="#fff"/>
  </g>
</svg>
