<svg xmlns="http://www.w3.org/2000/svg" width="25.055" height="25.055" viewBox="0 0 25.055 25.055">
  <path id="spotify" d="M12.528,0A12.528,12.528,0,1,0,25.055,12.528,12.528,12.528,0,0,0,12.528,0ZM17.98,18.181a.856.856,0,0,1-1.172.307,12.61,12.61,0,0,0-6.638-1.473,16.466,16.466,0,0,0-3.443.455.857.857,0,0,1-.454-1.652,17.838,17.838,0,0,1,3.8-.514,16.724,16.724,0,0,1,3.658.265,12.347,12.347,0,0,1,3.944,1.44A.857.857,0,0,1,17.98,18.181Zm1.593-3.308a1.014,1.014,0,0,1-1.388.364,14.938,14.938,0,0,0-7.862-1.745,19.508,19.508,0,0,0-4.079.539,1.015,1.015,0,0,1-.538-1.957,21.124,21.124,0,0,1,4.5-.608,19.814,19.814,0,0,1,4.333.314,14.627,14.627,0,0,1,4.672,1.705A1.015,1.015,0,0,1,19.572,14.873Zm.979-3.008a1.239,1.239,0,0,1-.627-.17c-6.34-3.7-14.563-1.5-14.646-1.48a1.245,1.245,0,0,1-.661-2.4,25.908,25.908,0,0,1,5.517-.746,24.308,24.308,0,0,1,5.315.385,17.939,17.939,0,0,1,5.731,2.092,1.245,1.245,0,0,1-.629,2.319Z" fill="#9b9b9b"/>
</svg>
